# xmcd
#
# Track frame offsets: 
#        150
#        15619
#        28422
#        45008
#        59361
#        72469
#        95291
#        118572
#        137848
#
# Disc length: 2080 seconds
#
# Revision: 5
# Processed by: cddbd v1.5.2PL0 Copyright (c) Steve Scherf et al.
# Submitted via: ExactAudioCopy v1.3
#
DISCID=75081e09
DTITLE=Jimmy Buffett - Son Of A Son Of A Sailor
DYEAR=1978
DGENRE=Country/rock
TTITLE0=Son Of A Son Of A Sailor
TTITLE1=Fool Button
TTITLE2=The Last Line
TTITLE3=Livingston Saturday Night
TTITLE4=Cheeseburger In Paradise
TTITLE5=Coast Of Marseilles
TTITLE6=Cowboy In The Jungle
TTITLE7=Manyana
TTITLE8=African Friend
EXTD=\n\n
EXTT0=
EXTT1=
EXTT2=
EXTT3=
EXTT4=
EXTT5=
EXTT6=
EXTT7=
EXTT8=
PLAYORDER=
